<svg width="203" height="68" viewBox="0 0 203 68" fill="none" xmlns="http://www.w3.org/2000/svg">
<path d="M21.2937 46.8964C20.9138 46.8964 20.5684 46.7928 20.2575 46.5855C19.9812 46.4128 19.7912 46.1192 19.6876 45.7048L19.1695 43.2697C18.1333 44.4441 16.9072 45.4284 15.491 46.2229C14.1095 46.9827 12.4688 47.3627 10.5691 47.3627C9.08394 47.3627 7.77143 47.0691 6.63162 46.4819C5.42273 45.8602 4.38654 44.9794 3.52305 43.8396C2.65956 42.7343 1.98603 41.3182 1.50248 39.5912C1.01892 37.8297 0.777143 35.8955 0.777143 33.7886C0.777143 31.8198 1.03619 29.9892 1.55429 28.2968C2.03784 26.7079 2.81498 25.24 3.88571 23.893C4.81829 22.7186 6.00991 21.7515 7.46057 20.9916C8.84216 20.2663 10.4137 19.9036 12.1752 19.9036C13.6604 19.9036 14.9384 20.1454 16.0091 20.629C17.149 21.147 18.0815 21.7688 18.8069 22.4941V13.6347L17.3044 13.3756C17.1317 13.3411 16.9763 13.3065 16.8381 13.272C16.7345 13.2375 16.6309 13.2202 16.5272 13.2202L16.2164 13.1684C15.3529 12.9611 14.9211 12.4258 14.9211 11.5623V8.50552H25.2312V41.819L26.5783 42.0263L27.2518 42.1817L27.5627 42.2335C28.4262 42.4408 28.8579 42.9761 28.8579 43.8396V46.8964H21.2937ZM18.8587 27.2088C18.1679 26.3453 17.3735 25.7236 16.4754 25.3436C15.5429 24.9637 14.6103 24.7737 13.6777 24.7737C12.7797 24.7737 11.9162 24.9637 11.0872 25.3436C10.3274 25.689 9.65384 26.2416 9.06667 27.0015C8.54857 27.7269 8.1341 28.6594 7.82324 29.7992C7.54692 30.8009 7.40876 32.1307 7.40876 33.7886C7.40876 35.4465 7.52965 36.7763 7.77143 37.7779C8.01321 38.8141 8.37587 39.6776 8.85943 40.3684C9.34298 41.0937 9.89562 41.5945 10.5173 41.8709C11.1736 42.1817 11.9335 42.3371 12.797 42.3371C14.1785 42.3371 15.3183 42.0608 16.2164 41.5082C17.1835 40.921 18.0643 40.1266 18.8587 39.125V27.2088ZM43.2735 20.0072C44.9659 20.0072 46.503 20.2663 47.8845 20.7844C49.1971 21.2679 50.4059 22.0623 51.5112 23.1676C52.5129 24.1693 53.3073 25.43 53.8945 26.9497C54.4816 28.504 54.7752 30.1964 54.7752 32.027C54.7752 32.4415 54.7407 32.856 54.6716 33.2705C54.6025 33.6504 54.5334 33.8922 54.4644 33.9958C54.3953 34.1685 54.2399 34.3067 53.9981 34.4103C53.8599 34.4794 53.6181 34.5139 53.2727 34.5139H36.8491C37.0564 37.2425 37.799 39.2458 39.0769 40.5238C40.3549 41.8018 42.0473 42.4408 44.1543 42.4408C45.225 42.4408 46.1058 42.3199 46.7965 42.0781C47.5564 41.8363 48.2127 41.56 48.7653 41.2491C49.0071 41.111 49.2489 40.9901 49.4906 40.8865C49.767 40.7483 50.026 40.6102 50.2678 40.472C50.6477 40.2302 51.0449 40.1093 51.4594 40.1093C51.7357 40.1093 51.9775 40.1611 52.1847 40.2648C52.3574 40.3338 52.5129 40.472 52.651 40.6792L54.5162 43.0107C53.7218 43.9087 52.9273 44.6168 52.1329 45.1349C51.2004 45.722 50.2851 46.171 49.387 46.4819C48.5235 46.7582 47.5392 46.9827 46.4339 47.1554C45.5704 47.2936 44.6033 47.3627 43.5325 47.3627C41.6329 47.3627 39.9232 47.0691 38.4034 46.4819C36.8837 45.8947 35.5021 44.9794 34.2586 43.736C33.0843 42.5617 32.1517 41.0764 31.4609 39.2804C30.8047 37.5534 30.4765 35.4983 30.4765 33.115C30.4765 31.3881 30.7701 29.6956 31.3573 28.0377C31.9099 26.4834 32.7562 25.0846 33.896 23.8411C34.9667 22.6668 36.2965 21.7342 37.8853 21.0434C39.4741 20.3526 41.2702 20.0072 43.2735 20.0072ZM43.3771 24.5665C41.5465 24.5665 40.0959 25.1018 39.0251 26.1726C37.9889 27.2088 37.3154 28.694 37.0045 30.6282H49.0244C49.0244 29.9029 48.9035 29.1257 48.6617 28.2968C48.4545 27.6405 48.1091 27.0015 47.6255 26.3798C47.1765 25.8272 46.5893 25.3954 45.864 25.0846C45.0696 24.7392 44.2406 24.5665 43.3771 24.5665ZM86.4321 23.4785C86.4321 24.342 86.0003 24.8773 85.1368 25.0846C84.9987 25.0846 84.7914 25.1191 84.5151 25.1882C84.2388 25.2573 83.6343 25.3782 82.7018 25.5509L70.4229 54.3051C70.2157 54.7887 69.9566 55.1341 69.6458 55.3413C69.404 55.5486 68.955 55.6522 68.2987 55.6522H63.5322L68.506 45.0312L59.9574 25.5509C59.0248 25.3782 58.4204 25.2573 58.144 25.1882C57.8677 25.1191 57.6605 25.0846 57.5223 25.0846C56.6588 24.8773 56.2271 24.342 56.2271 23.4785V20.4217H69.1795V23.4785C69.1795 24.342 68.7477 24.8773 67.8842 25.0846L66.6408 25.2918L70.8374 35.3947C70.9755 35.7055 71.0792 35.9818 71.1482 36.2236C71.2173 36.4654 71.2691 36.6554 71.3037 36.7935C71.3727 37.0353 71.4936 37.5189 71.6663 38.2442L72.1326 36.7935C72.3399 36.1718 72.5126 35.7055 72.6507 35.3947L76.5364 25.3954L74.7749 25.0846C73.9114 24.8773 73.4797 24.342 73.4797 23.4785V20.4217H86.4321V23.4785ZM99.6087 19.9554C100.61 19.9554 101.681 20.0763 102.821 20.3181C103.788 20.5253 104.703 20.8707 105.567 21.3543H113.183V23.7375C113.183 24.152 113.079 24.4629 112.872 24.6701C112.665 24.8773 112.319 25.0328 111.836 25.1364L109.452 25.5509C109.591 25.8963 109.712 26.3798 109.815 27.0015C109.919 27.5196 109.971 28.0377 109.971 28.5558C109.971 29.9029 109.712 31.0945 109.193 32.1307C108.641 33.2359 107.915 34.134 107.017 34.8248C106.119 35.5156 105.014 36.0855 103.702 36.5345C102.458 36.949 101.094 37.1562 99.6087 37.1562C98.4343 37.1562 97.4499 37.0698 96.6555 36.8971C95.8266 37.4152 95.4121 37.9679 95.4121 38.555C95.4121 39.1077 95.6539 39.5049 96.1374 39.7467C96.621 39.9884 97.2772 40.1611 98.1062 40.2648C99.2115 40.4029 100.127 40.472 100.852 40.472C101.197 40.472 101.629 40.4893 102.147 40.5238C102.665 40.5238 103.27 40.5583 103.961 40.6274C105.031 40.731 106.085 40.8865 107.121 41.0937C108.019 41.2664 108.917 41.6118 109.815 42.1299C110.644 42.5789 111.3 43.2006 111.784 43.995C112.267 44.7549 112.509 45.7911 112.509 47.1036C112.509 48.278 112.216 49.4178 111.628 50.523C111.076 51.6283 110.247 52.6127 109.142 53.4762C108.105 54.3397 106.758 55.0305 105.1 55.5486C103.477 56.0667 101.664 56.3257 99.6605 56.3257C97.519 56.3257 95.7575 56.1357 94.3759 55.7558C92.9252 55.3413 91.6991 54.8232 90.6974 54.2015C89.7303 53.6143 89.005 52.8717 88.5214 51.9737C88.0379 51.1102 87.7961 50.2295 87.7961 49.3314C87.7961 48.0189 88.176 46.9655 88.9359 46.171C89.6612 45.3766 90.7147 44.7204 92.0963 44.2023C91.4746 43.8569 90.9565 43.3733 90.542 42.7516C90.1275 42.1299 89.9203 41.3355 89.9203 40.3684C89.9203 39.9194 89.9894 39.5049 90.1275 39.125C90.3348 38.5723 90.542 38.1578 90.7492 37.8815C91.0946 37.4325 91.4573 37.0353 91.8372 36.6899C92.1136 36.4481 92.6317 36.12 93.3915 35.7055C92.0445 34.9802 90.9738 34.0131 90.1793 32.8042C89.4195 31.6298 89.0395 30.2137 89.0395 28.5558C89.0395 27.2088 89.2986 26.0171 89.8167 24.981C90.3348 23.9448 91.0774 23.0467 92.0445 22.2869C92.9771 21.5615 94.0823 20.9916 95.3603 20.5771C96.6728 20.1627 98.0889 19.9554 99.6087 19.9554ZM99.6087 33.0632C100.403 33.0632 101.094 32.9596 101.681 32.7524C102.268 32.5451 102.752 32.2516 103.132 31.8716C103.477 31.5953 103.771 31.129 104.012 30.4728C104.22 29.9547 104.323 29.3675 104.323 28.7112C104.323 27.4333 103.926 26.3971 103.132 25.6027C102.372 24.8428 101.197 24.4629 99.6087 24.4629C97.9853 24.4629 96.7937 24.8428 96.0338 25.6027C95.2739 26.3625 94.894 27.3987 94.894 28.7112C94.894 29.4366 94.9804 30.0237 95.1531 30.4728C95.3603 30.9909 95.6539 31.4399 96.0338 31.8198C96.4828 32.2688 96.9837 32.5797 97.5363 32.7524C98.158 32.9596 98.8488 33.0632 99.6087 33.0632ZM106.603 48.1916C106.603 47.6735 106.448 47.259 106.137 46.9482C105.826 46.6373 105.411 46.3783 104.893 46.171C104.513 46.0329 103.874 45.8947 102.976 45.7566C102.424 45.6875 101.664 45.6184 100.697 45.5493L98.2098 45.4457C97.1045 45.3766 96.2929 45.3076 95.7748 45.2385C94.9804 45.6875 94.3932 46.1538 94.0132 46.6373C93.5642 47.19 93.3397 47.8117 93.3397 48.5025C93.3397 48.8824 93.4606 49.3142 93.7024 49.7977C93.9096 50.2122 94.2723 50.5749 94.7904 50.8857C95.2739 51.162 95.9475 51.3865 96.811 51.5592C97.7435 51.7319 98.7279 51.8183 99.7641 51.8183C100.973 51.8183 102.009 51.7147 102.873 51.5074C103.805 51.3002 104.513 51.0584 104.997 50.7821C105.549 50.5058 105.964 50.1258 106.24 49.6423C106.482 49.2623 106.603 48.7788 106.603 48.1916ZM127.929 20.0072C129.829 20.0072 131.625 20.3354 133.317 20.9916C134.975 21.6479 136.357 22.5459 137.462 23.6857C138.567 24.8255 139.431 26.2589 140.052 27.9859C140.674 29.6783 140.985 31.5608 140.985 33.6331C140.985 35.7055 140.674 37.6052 140.052 39.3322C139.396 41.0937 138.533 42.5444 137.462 43.6842C136.322 44.8931 134.941 45.8084 133.317 46.4301C131.728 47.0518 129.932 47.3627 127.929 47.3627C125.926 47.3627 124.112 47.0518 122.489 46.4301C120.866 45.8084 119.484 44.8931 118.344 43.6842C117.135 42.4408 116.237 40.9901 115.65 39.3322C115.028 37.6052 114.718 35.7055 114.718 33.6331C114.718 31.5608 115.028 29.6783 115.65 27.9859C116.237 26.3971 117.135 24.9637 118.344 23.6857C119.45 22.5459 120.831 21.6479 122.489 20.9916C124.181 20.3354 125.995 20.0072 127.929 20.0072ZM127.929 42.4408C130.14 42.4408 131.763 41.6982 132.799 40.213C133.87 38.6587 134.405 36.4827 134.405 33.685C134.405 30.8872 133.87 28.7112 132.799 27.157C131.763 25.6372 130.14 24.8773 127.929 24.8773C125.719 24.8773 124.061 25.6372 122.955 27.157C121.85 28.6767 121.297 30.87 121.297 33.7368C121.297 36.5345 121.85 38.6932 122.955 40.213C124.026 41.6982 125.684 42.4408 127.929 42.4408Z" fill="#302F2F"/>
<g clip-path="url(#clip0_425_502)">
<path d="M168.381 0C166.688 -9.42283e-09 165.012 0.333439 163.448 0.981277C161.884 1.62912 160.463 2.57866 159.266 3.7757C158.07 4.97273 157.12 6.39381 156.472 7.95778C155.825 9.52175 155.492 11.198 155.492 12.8908C155.492 16.0148 156.626 19.0326 158.684 21.3829C160.743 23.7332 163.584 25.2559 166.681 25.668V66.3C166.681 66.7509 166.86 67.1833 167.179 67.5021C167.498 67.8209 167.93 68 168.381 68C168.832 68 169.264 67.8209 169.583 67.5021C169.902 67.1833 170.081 66.7509 170.081 66.3V25.6673C173.178 25.2553 176.019 23.7326 178.078 21.3825C180.136 19.0324 181.27 16.0147 181.271 12.8908C181.271 11.198 180.937 9.52175 180.29 7.95778C179.642 6.39381 178.693 4.97273 177.496 3.7757C176.299 2.57866 174.878 1.62912 173.314 0.981277C171.75 0.333439 170.074 -9.42284e-09 168.381 0ZM165.095 5.81332C165.626 5.81332 166.152 5.91792 166.643 6.12115C167.134 6.32438 167.579 6.62225 167.955 6.99777C168.33 7.37329 168.628 7.81909 168.831 8.30972C169.035 8.80036 169.139 9.32622 169.139 9.85728C169.139 10.3883 169.035 10.9142 168.831 11.4048C168.628 11.8955 168.33 12.3413 167.955 12.7168C167.579 13.0923 167.134 13.3902 166.643 13.5934C166.152 13.7966 165.626 13.9012 165.095 13.9012C164.023 13.9012 162.994 13.4752 162.236 12.7168C161.477 11.9584 161.051 10.9298 161.051 9.85728C161.051 8.78475 161.477 7.75616 162.236 6.99777C162.994 6.23938 164.023 5.81332 165.095 5.81332Z" fill="#FB3D3D"/>
</g>
<defs>
<clipPath id="clip0_425_502">
<rect width="68" height="68" fill="white" transform="translate(134.381)"/>
</clipPath>
</defs>
</svg>
