<svg width="176" height="52" viewBox="0 0 176 52" fill="none" xmlns="http://www.w3.org/2000/svg">
<g clip-path="url(#clip0_1256_6659)">
<path d="M9.14845 43.6589C7.20955 43.6589 5.5586 43.1406 4.19561 42.1088C2.82783 41.0769 1.79118 39.6324 1.07609 37.775C0.361005 35.9177 0.00585938 33.7485 0.00585938 31.272C0.00585938 28.9204 0.428194 26.7943 1.26807 24.889C2.10794 22.9837 3.31735 21.4671 4.88671 20.3393C6.46087 19.2115 8.32298 18.65 10.4826 18.65C11.9416 18.65 13.1798 18.8899 14.1973 19.3651C15.2147 19.8402 16.117 20.5073 16.9137 21.3664V8.1204H21.7273V43.3278H18.819C18.1519 43.3278 17.7391 43.011 17.5808 42.3727L17.1536 39.6084C16.1362 40.8466 14.97 41.8304 13.6502 42.5647C12.3304 43.2942 10.833 43.6589 9.14845 43.6589ZM10.7226 39.8483C12.0568 39.8483 13.2134 39.5556 14.2021 38.9653C15.1859 38.3797 16.093 37.5303 16.9185 36.4168V24.9322C16.189 23.9772 15.3875 23.3053 14.514 22.9069C13.6406 22.5086 12.6615 22.3118 11.5817 22.3118C10.1515 22.3118 8.94688 22.6622 7.96304 23.3581C6.97919 24.0587 6.2305 25.0714 5.72178 26.4056C5.21306 27.7398 4.9587 29.3571 4.9587 31.2672C4.9587 34.0604 5.41943 36.1913 6.34088 37.6503C7.26234 39.1092 8.72132 39.8435 10.7226 39.8435V39.8483ZM18.2958 8.1156L17.7247 12.1662L14.3892 11.4511C14.1013 11.3887 13.8805 11.2591 13.7221 11.0719C13.5638 10.88 13.4822 10.6256 13.4822 10.3089V8.1156H18.2958ZM20.3451 43.3278L20.9162 39.2772L24.2517 39.9923C24.5397 40.0547 24.7605 40.1843 24.9188 40.3714C25.0772 40.5634 25.1588 40.8178 25.1588 41.1345V43.3278H20.3451Z" fill="#302F2F"/>
<path d="M39.2588 43.6588C36.9071 43.6588 34.8531 43.1261 33.0869 42.0606C31.3256 40.9952 29.9578 39.4978 28.9884 37.5589C28.0189 35.62 27.5342 33.3356 27.5342 30.696C27.5342 28.4403 28.0045 26.4006 28.9404 24.5721C29.8762 22.7436 31.2104 21.3086 32.9429 20.2624C34.6755 19.2162 36.7008 18.6882 39.0188 18.6882C41.0489 18.6882 42.8294 19.1346 44.3556 20.0224C45.8818 20.9103 47.072 22.1677 47.931 23.785C48.7901 25.4072 49.2172 27.3413 49.2172 29.597C49.2172 30.3264 49.1357 30.8208 48.9773 31.0751C48.8189 31.3295 48.5022 31.4543 48.0222 31.4543H32.2998V32.0254C32.4918 34.569 33.2213 36.5223 34.4931 37.8853C35.7649 39.2531 37.4782 39.9346 39.6379 39.9346C40.593 39.9346 41.5336 39.7426 42.4743 39.3635C43.4101 38.9843 44.2548 38.61 44.9987 38.2452C45.7426 37.8805 46.2945 37.6981 46.6448 37.6981C47.024 37.6981 47.3263 37.8229 47.5519 38.0772L48.8861 39.8386C48.1854 40.7264 47.2975 41.4607 46.2177 42.0318C45.1379 42.603 43.9956 43.0157 42.7862 43.2701C41.5768 43.5244 40.4058 43.6492 39.2588 43.6492V43.6588ZM32.4438 28.5075H44.9267C44.9267 26.6646 44.418 25.148 43.4005 23.9578C42.3831 22.7676 40.9529 22.1725 39.1148 22.1725C37.1471 22.1725 35.6065 22.7292 34.4931 23.8378C33.3797 24.9465 32.6982 26.5062 32.4438 28.5075Z" fill="#302F2F"/>
<path d="M56.3156 19.077L55.7445 23.1276L52.457 22.4125C52.1403 22.3501 51.9003 22.2205 51.7419 22.0333C51.5835 21.8414 51.502 21.587 51.502 21.2702V19.077H56.3156ZM58.3169 51.472L62.7946 41.7535L52.8361 19.0722H56.9827C57.3954 19.0722 57.7122 19.1778 57.9378 19.3841C58.1585 19.5905 58.3169 19.8065 58.4129 20.0272L64.4648 34.4634C64.5607 34.7514 64.6807 35.1065 64.8199 35.5336C64.9591 35.9608 65.0839 36.3543 65.1751 36.6999C65.2374 36.4791 65.3094 36.2391 65.391 35.9848C65.4678 35.7304 65.5638 35.4665 65.679 35.1977C65.7894 34.9289 65.8757 34.665 65.9429 34.4106L71.7548 20.0224C71.8508 19.7681 72.0332 19.5473 72.302 19.3553C72.5707 19.1634 72.8491 19.0674 73.137 19.0674H76.9476L63.5577 50.3202C63.3993 50.6705 63.2026 50.9489 62.9626 51.1552C62.7226 51.3616 62.3675 51.4624 61.8924 51.4624H58.3169V51.472ZM56.3636 20.3632V19.077H59.8911V20.3632H56.3636ZM62.5595 19.077V21.2702C62.5595 21.587 62.4779 21.8414 62.3195 22.0333C62.1611 22.2253 61.9212 22.3501 61.6044 22.4125L58.2689 23.1276L57.7458 19.077H62.5595ZM72.038 19.077L71.4669 23.1276L68.1794 22.4125C67.8626 22.3501 67.6227 22.2205 67.4643 22.0333C67.3059 21.8414 67.2243 21.587 67.2243 21.2702V19.077H72.038ZM70.6558 20.3632V19.077H74.1833V20.3632H70.6558ZM78.2818 19.077V21.2702C78.2818 21.587 78.2002 21.8414 78.0419 22.0333C77.8835 22.2253 77.6435 22.3501 77.3268 22.4125L73.9913 23.1276L73.4682 19.077H78.2818Z" fill="#302F2F"/>
<path d="M102.388 18.6931C103.434 18.6931 104.413 18.8035 105.321 19.0291C106.228 19.2498 107.058 19.5714 107.821 19.9841H114.492V21.7454C114.492 22.0334 114.41 22.2686 114.252 22.4605C114.094 22.6525 113.806 22.7773 113.393 22.8397L110.868 23.2188C111.344 24.2363 111.584 25.3305 111.584 26.5063C111.584 28.0949 111.18 29.4675 110.369 30.6289C109.558 31.7903 108.454 32.6926 107.058 33.3453C105.661 33.998 104.102 34.3243 102.388 34.3243C101.846 34.3243 101.323 34.2907 100.814 34.2283C100.305 34.1659 99.8158 34.0843 99.3359 33.9884C98.8607 34.2763 98.5008 34.5835 98.2656 34.9194C98.0257 35.2506 97.9105 35.5769 97.9105 35.8985C97.9105 36.4696 98.1553 36.8919 98.6496 37.1607C99.1439 37.4294 99.7918 37.6118 100.603 37.7078C101.414 37.8038 102.287 37.8662 103.223 37.8998C104.159 37.9334 105.057 37.9813 105.916 38.0437C107.375 38.1733 108.709 38.4037 109.918 38.7348C111.123 39.0708 112.102 39.6227 112.851 40.4002C113.594 41.1777 113.969 42.3151 113.969 43.8077C113.969 45.3002 113.47 46.716 112.467 47.9542C111.468 49.1924 110.101 50.1763 108.368 50.9058C106.636 51.6352 104.677 52 102.484 52C100.291 52 98.4912 51.7312 96.8883 51.1889C95.2853 50.6466 94.0375 49.9027 93.1496 48.9477C92.2618 47.9974 91.8154 46.884 91.8154 45.6122C91.8154 44.3404 92.1898 43.3901 92.9337 42.5646C93.6775 41.7392 94.6902 41.1057 95.9572 40.6593C95.2901 40.309 94.7574 39.8675 94.359 39.3251C93.9607 38.7876 93.7639 38.0725 93.7639 37.1799C93.7639 36.4504 94.0519 35.6969 94.623 34.9194C95.1941 34.1419 95.9572 33.5132 96.9122 33.0381C95.7028 32.371 94.7622 31.4831 94.0759 30.3697C93.3944 29.2563 93.0536 27.9701 93.0536 26.5111C93.0536 24.8602 93.4568 23.454 94.2679 22.2926C95.0789 21.1311 96.1876 20.2433 97.6033 19.6242C99.0143 19.0051 100.612 18.6931 102.393 18.6931H102.388ZM109.534 44.5659C109.534 43.7069 109.179 43.0974 108.464 42.7326C107.749 42.3679 106.9 42.1231 105.916 41.9935C105.565 41.9311 105.09 41.8831 104.485 41.8496C103.881 41.816 103.214 41.7776 102.484 41.7296C101.755 41.6816 101.054 41.6288 100.387 41.5616C99.7198 41.4992 99.1775 41.4512 98.7648 41.4176C97.9393 41.8304 97.2626 42.3247 96.7395 42.8958C96.2164 43.4669 95.9524 44.1676 95.9524 44.9931C95.9524 45.7226 96.2212 46.3657 96.7635 46.9224C97.301 47.4791 98.0737 47.8918 99.0719 48.1606C100.07 48.4293 101.222 48.5637 102.527 48.5637C103.833 48.5637 105.1 48.4149 106.146 48.1126C107.192 47.8102 108.018 47.3639 108.622 46.7784C109.227 46.1929 109.53 45.4538 109.53 44.5611L109.534 44.5659ZM102.388 31.176C103.943 31.176 105.153 30.7537 106.007 29.9138C106.866 29.0739 107.293 27.9701 107.293 26.6023C107.293 25.2345 106.88 24.1403 106.055 23.3148C105.229 22.4893 104.006 22.0766 102.388 22.0766C100.771 22.0766 99.4991 22.4893 98.6736 23.3148C97.8481 24.1403 97.4354 25.2393 97.4354 26.6023C97.4354 27.9653 97.8625 29.0739 98.7216 29.9138C99.5806 30.7537 100.8 31.176 102.388 31.176Z" fill="#302F2F"/>
<path d="M128.689 18.6931C131.103 18.6931 133.176 19.2114 134.908 20.2433C136.641 21.2751 137.975 22.7293 138.911 24.601C139.847 26.4775 140.317 28.666 140.317 31.176C140.317 33.686 139.847 35.8361 138.911 37.727C137.975 39.6179 136.641 41.0769 134.908 42.1087C133.176 43.1406 131.103 43.6589 128.689 43.6589C126.275 43.6589 124.235 43.1406 122.469 42.1087C120.707 41.0769 119.34 39.6131 118.37 37.727C117.401 35.8361 116.916 33.6524 116.916 31.176C116.916 28.6996 117.401 26.4775 118.37 24.601C119.34 22.7293 120.703 21.2751 122.469 20.2433C124.23 19.2114 126.303 18.6931 128.689 18.6931ZM128.689 39.9922C130.944 39.9922 132.629 39.2292 133.737 37.7078C134.851 36.1816 135.408 34.022 135.408 31.2288C135.408 29.3235 135.163 27.7205 134.668 26.4151C134.174 25.1145 133.43 24.1211 132.427 23.4348C131.429 22.7533 130.181 22.4125 128.689 22.4125C127.196 22.4125 125.847 22.7629 124.83 23.4588C123.813 24.1595 123.069 25.1673 122.589 26.4823C122.114 27.8021 121.874 29.3811 121.874 31.224C121.874 33.926 122.43 36.0616 123.539 37.631C124.652 39.2052 126.366 39.9874 128.684 39.9874L128.689 39.9922Z" fill="#302F2F"/>
<path d="M164.572 20.5024H163.612V38.3461H164.572V20.5024Z" fill="#FDFCFC"/>
<path d="M164.265 12.1517H163.305V50.8482H164.265V12.1517Z" fill="#302F2F"/>
<path d="M163.938 23.142C170.329 23.142 175.509 17.9615 175.509 11.571C175.509 5.18052 170.329 0 163.938 0C157.548 0 152.367 5.18052 152.367 11.571C152.367 17.9615 157.548 23.142 163.938 23.142Z" fill="#FB3D3D"/>
<path d="M169.14 10.7695C170.643 10.7695 171.861 9.5512 171.861 8.04833C171.861 6.54546 170.643 5.32715 169.14 5.32715C167.637 5.32715 166.419 6.54546 166.419 8.04833C166.419 9.5512 167.637 10.7695 169.14 10.7695Z" fill="#DD9632"/>
</g>
<defs>
<clipPath id="clip0_1256_6659">
<rect width="175.509" height="52" fill="white"/>
</clipPath>
</defs>
</svg>
