<?xml version="1.0" encoding="UTF-8"?>
<svg id="Layer_2" data-name="Layer 2" xmlns="http://www.w3.org/2000/svg" viewBox="0 0 365.7 108.35">
  <defs>
    <style>
      .cls-1 {
        fill: #fb3d3d;
      }

      .cls-1, .cls-2, .cls-3, .cls-4 {
        stroke-width: 0px;
      }

      .cls-2 {
        fill: #dd9632;
      }

      .cls-3 {
        fill: #302f2f;
      }

      .cls-4 {
        fill: #fdfcfc;
      }
    </style>
  </defs>
  <g id="Layer_1-2" data-name="Layer 1">
    <g>
      <g>
        <path class="cls-3" d="M19.06,90.97c-4.04,0-7.48-1.08-10.32-3.23-2.85-2.15-5.01-5.16-6.5-9.03-1.49-3.87-2.23-8.39-2.23-13.55,0-4.9.88-9.33,2.63-13.3,1.75-3.97,4.27-7.13,7.54-9.48,3.28-2.35,7.16-3.52,11.66-3.52,3.04,0,5.62.5,7.74,1.49,2.12.99,4,2.38,5.66,4.17v-27.6h10.03v73.36h-6.06c-1.39,0-2.25-.66-2.58-1.99l-.89-5.76c-2.12,2.58-4.55,4.63-7.3,6.16-2.75,1.52-5.87,2.28-9.38,2.28ZM22.34,83.03c2.78,0,5.19-.61,7.25-1.84,2.05-1.22,3.94-2.99,5.66-5.31v-23.93c-1.52-1.99-3.19-3.39-5.01-4.22-1.82-.83-3.86-1.24-6.11-1.24-2.98,0-5.49.73-7.54,2.18-2.05,1.46-3.61,3.57-4.67,6.35-1.06,2.78-1.59,6.15-1.59,10.13,0,5.82.96,10.26,2.88,13.3,1.92,3.04,4.96,4.57,9.13,4.57ZM38.12,16.91l-1.19,8.44-6.95-1.49c-.6-.13-1.06-.4-1.39-.79-.33-.4-.5-.93-.5-1.59v-4.57h10.03ZM42.39,90.28l1.19-8.44,6.95,1.49c.6.13,1.06.4,1.39.79.33.4.5.93.5,1.59v4.57h-10.03Z"/>
        <path class="cls-3" d="M81.8,90.97c-4.9,0-9.18-1.11-12.86-3.33-3.67-2.22-6.52-5.34-8.54-9.38-2.02-4.04-3.03-8.8-3.03-14.3,0-4.7.98-8.95,2.93-12.76,1.95-3.81,4.73-6.8,8.34-8.98,3.61-2.18,7.83-3.28,12.66-3.28,4.23,0,7.94.93,11.12,2.78,3.18,1.85,5.66,4.47,7.45,7.84,1.79,3.38,2.68,7.41,2.68,12.11,0,1.52-.17,2.55-.5,3.08-.33.53-.99.79-1.99.79h-32.76v1.19c.4,5.3,1.92,9.37,4.57,12.21,2.65,2.85,6.22,4.27,10.72,4.27,1.99,0,3.95-.4,5.91-1.19,1.95-.79,3.71-1.57,5.26-2.33,1.55-.76,2.7-1.14,3.43-1.14.79,0,1.42.26,1.89.79l2.78,3.67c-1.46,1.85-3.31,3.38-5.56,4.57-2.25,1.19-4.63,2.05-7.15,2.58-2.52.53-4.96.79-7.35.79ZM67.6,59.4h26.01c0-3.84-1.06-7-3.18-9.48-2.12-2.48-5.1-3.72-8.93-3.72-4.1,0-7.31,1.16-9.63,3.47s-3.74,5.56-4.27,9.73Z"/>
        <path class="cls-3" d="M117.34,39.75l-1.19,8.44-6.85-1.49c-.66-.13-1.16-.4-1.49-.79-.33-.4-.5-.93-.5-1.59v-4.57h10.03ZM121.51,107.25l9.33-20.25-20.75-47.26h8.64c.86,0,1.52.22,1.99.65.46.43.79.88.99,1.34l12.61,30.08c.2.6.45,1.34.74,2.23s.55,1.71.74,2.43c.13-.46.28-.96.45-1.49.16-.53.36-1.08.6-1.64.23-.56.41-1.11.55-1.64l12.11-29.98c.2-.53.58-.99,1.14-1.39.56-.4,1.14-.6,1.74-.6h7.94l-27.9,65.12c-.33.73-.74,1.31-1.24,1.74-.5.43-1.24.64-2.23.64h-7.45ZM117.44,42.43v-2.68h7.35v2.68h-7.35ZM130.35,39.75v4.57c0,.66-.17,1.19-.5,1.59-.33.4-.83.66-1.49.79l-6.95,1.49-1.09-8.44h10.03ZM150.1,39.75l-1.19,8.44-6.85-1.49c-.66-.13-1.16-.4-1.49-.79-.33-.4-.5-.93-.5-1.59v-4.57h10.03ZM147.22,42.43v-2.68h7.35v2.68h-7.35ZM163.11,39.75v4.57c0,.66-.17,1.19-.5,1.59-.33.4-.83.66-1.49.79l-6.95,1.49-1.09-8.44h10.03Z"/>
        <path class="cls-3" d="M213.34,38.95c2.18,0,4.22.23,6.11.7,1.89.46,3.62,1.13,5.21,1.99h13.9v3.67c0,.6-.17,1.09-.5,1.49-.33.4-.93.66-1.79.79l-5.26.79c.99,2.12,1.49,4.4,1.49,6.85,0,3.31-.84,6.17-2.53,8.59-1.69,2.42-3.99,4.3-6.9,5.66-2.91,1.36-6.16,2.04-9.73,2.04-1.13,0-2.22-.07-3.28-.2-1.06-.13-2.08-.3-3.08-.5-.99.6-1.74,1.24-2.23,1.94-.5.69-.74,1.37-.74,2.04,0,1.19.51,2.07,1.54,2.63,1.03.56,2.38.94,4.07,1.14,1.69.2,3.51.33,5.46.4,1.95.07,3.82.17,5.61.3,3.04.27,5.82.75,8.34,1.44,2.51.7,4.55,1.85,6.11,3.47,1.55,1.62,2.33,3.99,2.33,7.1s-1.04,6.06-3.13,8.64c-2.08,2.58-4.93,4.63-8.54,6.15-3.61,1.52-7.69,2.28-12.26,2.28s-8.32-.56-11.66-1.69c-3.34-1.13-5.94-2.68-7.79-4.67-1.85-1.98-2.78-4.3-2.78-6.95s.78-4.63,2.33-6.35c1.55-1.72,3.66-3.04,6.3-3.97-1.39-.73-2.5-1.65-3.33-2.78-.83-1.12-1.24-2.61-1.24-4.47,0-1.52.6-3.09,1.79-4.71,1.19-1.62,2.78-2.93,4.77-3.92-2.52-1.39-4.48-3.24-5.91-5.56-1.42-2.32-2.13-5-2.13-8.04,0-3.44.84-6.37,2.53-8.79,1.69-2.42,4-4.27,6.95-5.56,2.94-1.29,6.27-1.94,9.98-1.94ZM228.23,92.86c0-1.79-.74-3.06-2.23-3.82-1.49-.76-3.26-1.27-5.31-1.54-.73-.13-1.72-.23-2.98-.3-1.26-.07-2.65-.15-4.17-.25-1.52-.1-2.98-.21-4.37-.35-1.39-.13-2.52-.23-3.38-.3-1.72.86-3.13,1.89-4.22,3.08-1.09,1.19-1.64,2.65-1.64,4.37,0,1.52.56,2.86,1.69,4.02,1.12,1.16,2.73,2.02,4.81,2.58,2.08.56,4.48.84,7.2.84s5.36-.31,7.54-.94c2.18-.63,3.9-1.56,5.16-2.78,1.26-1.22,1.89-2.76,1.89-4.62ZM213.34,64.96c3.24,0,5.76-.88,7.54-2.63,1.79-1.75,2.68-4.05,2.68-6.9s-.86-5.13-2.58-6.85c-1.72-1.72-4.27-2.58-7.64-2.58s-6.02.86-7.74,2.58-2.58,4.01-2.58,6.85.89,5.15,2.68,6.9c1.79,1.75,4.33,2.63,7.64,2.63Z"/>
        <path class="cls-3" d="M268.14,38.95c5.03,0,9.35,1.08,12.96,3.23,3.61,2.15,6.39,5.18,8.34,9.08,1.95,3.91,2.93,8.47,2.93,13.7s-.98,9.71-2.93,13.65c-1.95,3.94-4.73,6.98-8.34,9.13-3.61,2.15-7.93,3.23-12.96,3.23s-9.28-1.08-12.96-3.23c-3.67-2.15-6.52-5.2-8.54-9.13-2.02-3.94-3.03-8.49-3.03-13.65s1.01-9.79,3.03-13.7c2.02-3.9,4.86-6.93,8.54-9.08,3.67-2.15,7.99-3.23,12.96-3.23ZM268.14,83.33c4.7,0,8.21-1.59,10.52-4.76,2.32-3.18,3.48-7.68,3.48-13.5,0-3.97-.51-7.31-1.54-10.03-1.03-2.71-2.58-4.78-4.67-6.21-2.08-1.42-4.68-2.13-7.79-2.13s-5.92.73-8.04,2.18c-2.12,1.46-3.67,3.56-4.67,6.3-.99,2.75-1.49,6.04-1.49,9.88,0,5.63,1.16,10.08,3.47,13.35,2.32,3.28,5.89,4.91,10.72,4.91Z"/>
      </g>
      <g>
        <rect class="cls-4" x="340.91" y="42.72" width="2" height="37.18"/>
        <rect class="cls-3" x="340.27" y="25.32" width="2" height="80.63"/>
      </g>
      <g>
        <circle class="cls-1" cx="341.59" cy="24.11" r="24.11"/>
        <circle class="cls-2" cx="352.43" cy="16.77" r="5.67"/>
      </g>
    </g>
  </g>
</svg>