<svg width="24" height="51" viewBox="0 0 24 51" fill="none" xmlns="http://www.w3.org/2000/svg">
<path d="M12.5722 20.5024H11.6123V38.3461H12.5722V20.5024Z" fill="#FDFCFC"/>
<path d="M12.2645 12.1517H11.3047V50.8482H12.2645V12.1517Z" fill="#302F2F"/>
<path d="M11.9382 23.142C18.3287 23.142 23.5092 17.9615 23.5092 11.571C23.5092 5.18052 18.3287 0 11.9382 0C5.5477 0 0.367188 5.18052 0.367188 11.571C0.367188 17.9615 5.5477 23.142 11.9382 23.142Z" fill="#FB3D3D"/>
<path d="M17.1401 10.7695C18.643 10.7695 19.8613 9.5512 19.8613 8.04833C19.8613 6.54546 18.643 5.32715 17.1401 5.32715C15.6373 5.32715 14.4189 6.54546 14.4189 8.04833C14.4189 9.5512 15.6373 10.7695 17.1401 10.7695Z" fill="#DD9632"/>
</svg>
